<svg aria-roledescription="gitGraph" role="graphics-document document" viewBox="-102.59375 -18.5 760.59375 447.3815002441406" height="100%" xmlns="http://www.w3.org/2000/svg" width="760.59375" id="graph-div" style="max-width: 100%;" xmlns:xlink="http://www.w3.org/1999/xlink"><style>@import url("https://cdnjs.cloudflare.com/ajax/libs/font-awesome/6.4.2/css/all.min.css");'</style><style>#graph-div{font-family:"trebuchet ms",verdana,arial,sans-serif;font-size:16px;fill:#333;}#graph-div .error-icon{fill:hsl(220.5882352941, 100%, 98.3333333333%);}#graph-div .error-text{fill:rgb(8.5000000002, 5.7500000001, 0);stroke:rgb(8.5000000002, 5.7500000001, 0);}#graph-div .edge-thickness-normal{stroke-width:2px;}#graph-div .edge-thickness-thick{stroke-width:3.5px;}#graph-div .edge-pattern-solid{stroke-dasharray:0;}#graph-div .edge-pattern-dashed{stroke-dasharray:3;}#graph-div .edge-pattern-dotted{stroke-dasharray:2;}#graph-div .marker{fill:#0b0b0b;stroke:#0b0b0b;}#graph-div .marker.cross{stroke:#0b0b0b;}#graph-div svg{font-family:"trebuchet ms",verdana,arial,sans-serif;font-size:16px;}#graph-div .commit-id,#graph-div .commit-msg,#graph-div .branch-label{fill:lightgrey;color:lightgrey;font-family:'trebuchet ms',verdana,arial,sans-serif;font-family:var(--mermaid-font-family);}#graph-div .branch-label0{fill:#333;}#graph-div .commit0{stroke:hsl(40.5882352941, 100%, 68.3333333333%);fill:hsl(40.5882352941, 100%, 68.3333333333%);}#graph-div .commit-highlight0{stroke:rgb(0, 52.2500000001, 161.5000000002);fill:rgb(0, 52.2500000001, 161.5000000002);}#graph-div .label0{fill:hsl(40.5882352941, 100%, 68.3333333333%);}#graph-div .arrow0{stroke:hsl(40.5882352941, 100%, 68.3333333333%);}#graph-div .branch-label1{fill:#333;}#graph-div .commit1{stroke:hsl(-79.4117647059, 100%, 68.3333333333%);fill:hsl(-79.4117647059, 100%, 68.3333333333%);}#graph-div .commit-highlight1{stroke:rgb(52.2500000001, 161.5000000002, 0);fill:rgb(52.2500000001, 161.5000000002, 0);}#graph-div .label1{fill:hsl(-79.4117647059, 100%, 68.3333333333%);}#graph-div .arrow1{stroke:hsl(-79.4117647059, 100%, 68.3333333333%);}#graph-div .branch-label2{fill:#333;}#graph-div .commit2{stroke:hsl(220.5882352941, 100%, 73.3333333333%);fill:hsl(220.5882352941, 100%, 73.3333333333%);}#graph-div .commit-highlight2{stroke:rgb(136.0000000002, 92.0000000001, 0);fill:rgb(136.0000000002, 92.0000000001, 0);}#graph-div .label2{fill:hsl(220.5882352941, 100%, 73.3333333333%);}#graph-div .arrow2{stroke:hsl(220.5882352941, 100%, 73.3333333333%);}#graph-div .branch-label3{fill:#333;}#graph-div .commit3{stroke:hsl(10.5882352941, 100%, 68.3333333333%);fill:hsl(10.5882352941, 100%, 68.3333333333%);}#graph-div .commit-highlight3{stroke:rgb(0, 133.0000000002, 161.5000000002);fill:rgb(0, 133.0000000002, 161.5000000002);}#graph-div .label3{fill:hsl(10.5882352941, 100%, 68.3333333333%);}#graph-div .arrow3{stroke:hsl(10.5882352941, 100%, 68.3333333333%);}#graph-div .branch-label4{fill:#333;}#graph-div .commit4{stroke:hsl(-19.4117647059, 100%, 68.3333333333%);fill:hsl(-19.4117647059, 100%, 68.3333333333%);}#graph-div .commit-highlight4{stroke:rgb(0, 161.5000000002, 109.2500000001);fill:rgb(0, 161.5000000002, 109.2500000001);}#graph-div .label4{fill:hsl(-19.4117647059, 100%, 68.3333333333%);}#graph-div .arrow4{stroke:hsl(-19.4117647059, 100%, 68.3333333333%);}#graph-div .branch-label5{fill:#333;}#graph-div .commit5{stroke:hsl(-49.4117647059, 100%, 68.3333333333%);fill:hsl(-49.4117647059, 100%, 68.3333333333%);}#graph-div .commit-highlight5{stroke:rgb(0, 161.5000000002, 28.5);fill:rgb(0, 161.5000000002, 28.5);}#graph-div .label5{fill:hsl(-49.4117647059, 100%, 68.3333333333%);}#graph-div .arrow5{stroke:hsl(-49.4117647059, 100%, 68.3333333333%);}#graph-div .branch-label6{fill:#333;}#graph-div .commit6{stroke:hsl(100.5882352941, 100%, 68.3333333333%);fill:hsl(100.5882352941, 100%, 68.3333333333%);}#graph-div .commit-highlight6{stroke:rgb(109.2500000001, 0, 161.5000000002);fill:rgb(109.2500000001, 0, 161.5000000002);}#graph-div .label6{fill:hsl(100.5882352941, 100%, 68.3333333333%);}#graph-div .arrow6{stroke:hsl(100.5882352941, 100%, 68.3333333333%);}#graph-div .branch-label7{fill:#333;}#graph-div .commit7{stroke:hsl(160.5882352941, 100%, 68.3333333333%);fill:hsl(160.5882352941, 100%, 68.3333333333%);}#graph-div .commit-highlight7{stroke:rgb(161.5000000002, 0, 52.2500000001);fill:rgb(161.5000000002, 0, 52.2500000001);}#graph-div .label7{fill:hsl(160.5882352941, 100%, 68.3333333333%);}#graph-div .arrow7{stroke:hsl(160.5882352941, 100%, 68.3333333333%);}#graph-div .branch{stroke-width:1;stroke:#0b0b0b;stroke-dasharray:2;}#graph-div .commit-label{font-size:10px;fill:rgb(11.0000000001, 34.0000000002, 0);}#graph-div .commit-label-bkg{font-size:10px;fill:hsl(-79.4117647059, 100%, 93.3333333333%);opacity:0.5;}#graph-div .tag-label{font-size:10px;fill:#333;}#graph-div .tag-label-bkg{fill:#fff4dd;stroke:hsl(40.5882352941, 60%, 83.3333333333%);}#graph-div .tag-hole{fill:#333;}#graph-div .commit-merge{stroke:#fff4dd;fill:#fff4dd;}#graph-div .commit-reverse{stroke:#fff4dd;fill:#fff4dd;stroke-width:3;}#graph-div .commit-highlight-inner{stroke:#fff4dd;fill:#fff4dd;}#graph-div .arrow{stroke-width:8;stroke-linecap:round;fill:none;}#graph-div .gitTitleText{text-anchor:middle;font-size:18px;fill:#333;}#graph-div :root{--mermaid-font-family:"trebuchet ms",verdana,arial,sans-serif;}</style><g></g><g class="commit-bullets"></g><g class="commit-labels"></g><g><line class="branch branch0" y2="0" x2="650" y1="0" x1="0"></line><rect transform="translate(-19, -9.25)" height="22.5" width="52.9921875" y="-1.25" x="-68.9921875" ry="4" rx="4" class="branchLabelBkg label0"></rect><g class="branchLabel"><g transform="translate(-78.9921875, -10.25)" class="label branch-label0"><text><tspan class="row" x="0" dy="1em" xml:space="preserve">main</tspan></text></g></g><line class="branch branch1" y2="90" x2="650" y1="90" x1="0"></line><rect transform="translate(-19, 80.75)" height="22.5" width="59.21875" y="-1.25" x="-75.21875" ry="4" rx="4" class="branchLabelBkg label1"></rect><g class="branchLabel"><g transform="translate(-85.21875, 79.75)" class="label branch-label1"><text><tspan class="row" x="0" dy="1em" xml:space="preserve">fiturA</tspan></text></g></g><line class="branch branch2" y2="180" x2="650" y1="180" x1="0"></line><rect transform="translate(-19, 170.75)" height="22.5" width="58.8359375" y="-1.25" x="-74.8359375" ry="4" rx="4" class="branchLabelBkg label2"></rect><g class="branchLabel"><g transform="translate(-84.8359375, 169.75)" class="label branch-label2"><text><tspan class="row" x="0" dy="1em" xml:space="preserve">fiturB</tspan></text></g></g><line class="branch branch3" y2="270" x2="650" y1="270" x1="0"></line><rect transform="translate(-19, 260.75)" height="22.5" width="59.3515625" y="-1.25" x="-75.3515625" ry="4" rx="4" class="branchLabelBkg label3"></rect><g class="branchLabel"><g transform="translate(-85.3515625, 259.75)" class="label branch-label3"><text><tspan class="row" x="0" dy="1em" xml:space="preserve">fiturC</tspan></text></g></g><line class="branch branch4" y2="360" x2="650" y1="360" x1="0"></line><rect transform="translate(-19, 350.75)" height="22.5" width="59.59375" y="-1.25" x="-75.59375" ry="4" rx="4" class="branchLabelBkg label4"></rect><g class="branchLabel"><g transform="translate(-85.59375, 349.75)" class="label branch-label4"><text><tspan class="row" x="0" dy="1em" xml:space="preserve">fiturD</tspan></text></g></g></g><g class="commit-arrows"><path class="arrow arrow0" d="M 10 0 L 10 0  10 0 L 60 0"></path><path class="arrow arrow1" d="M 60 0 L 60 70 A 20 20, 0, 0, 0, 80 90 L 110 90"></path><path class="arrow arrow1" d="M 110 90 L 110 90  110 90 L 160 90"></path><path class="arrow arrow1" d="M 160 90 L 160 90  160 90 L 210 90"></path><path class="arrow arrow0" d="M 60 0 L 60 0  60 0 L 260 0"></path><path class="arrow arrow1" d="M 210 90 L 240 90 A 20 20, 0, 0, 0, 260 70 L 260 0"></path><path class="arrow arrow2" d="M 260 0 L 260 160 A 20 20, 0, 0, 0, 280 180 L 310 180"></path><path class="arrow arrow2" d="M 310 180 L 310 180  310 180 L 360 180"></path><path class="arrow arrow3" d="M 260 0 L 260 250 A 20 20, 0, 0, 0, 280 270 L 410 270"></path><path class="arrow arrow0" d="M 260 0 L 260 0  260 0 L 460 0"></path><path class="arrow arrow3" d="M 410 270 L 440 270 A 20 20, 0, 0, 0, 460 250 L 460 0"></path><path class="arrow arrow4" d="M 460 0 L 460 340 A 20 20, 0, 0, 0, 480 360 L 510 360"></path><path class="arrow arrow0" d="M 460 0 L 460 0  460 0 L 560 0"></path><path class="arrow arrow0" d="M 360 180 L 360 82 A 10 10, 0, 0, 1, 370 72 L 550 72 A 10 10, 0, 0, 0, 560 62 L 560 0"></path><path class="arrow arrow0" d="M 560 0 L 560 0  560 0 L 610 0"></path><path class="arrow arrow0" d="M 510 360 L 510 154 A 10 10, 0, 0, 1, 520 144 L 600 144 A 10 10, 0, 0, 0, 610 134 L 610 0"></path></g><g class="commit-bullets"><circle class="commit 0-5a82f77 commit0" r="10" cy="0" cx="10"></circle><circle class="commit 1-961f760 commit0" r="10" cy="0" cx="60"></circle><circle class="commit 2-bebbff1 commit1" r="10" cy="90" cx="110"></circle><circle class="commit 3-ba0ca55 commit1" r="10" cy="90" cx="160"></circle><circle class="commit 4-1a31550 commit1" r="10" cy="90" cx="210"></circle><circle class="commit 5-f1fff94 commit0" r="9" cy="0" cx="260"></circle><circle class="commit commit-merge 5-f1fff94 commit0" r="6" cy="0" cx="260"></circle><circle class="commit 6-d5a82ff commit2" r="10" cy="180" cx="310"></circle><circle class="commit 7-1f90ce0 commit2" r="10" cy="180" cx="360"></circle><circle class="commit 8-68cfb9f commit3" r="10" cy="270" cx="410"></circle><circle class="commit 9-2031c2c commit0" r="9" cy="0" cx="460"></circle><circle class="commit commit-merge 9-2031c2c commit0" r="6" cy="0" cx="460"></circle><circle class="commit 10-ddee07a commit4" r="10" cy="360" cx="510"></circle><circle class="commit 11-82015ab commit0" r="9" cy="0" cx="560"></circle><circle class="commit commit-merge 11-82015ab commit0" r="6" cy="0" cx="560"></circle><circle class="commit 12-68e32ae commit0" r="9" cy="0" cx="610"></circle><circle class="commit commit-merge 12-68e32ae commit0" r="6" cy="0" cx="610"></circle></g><g class="commit-labels"><g transform="translate(-28.055625, 24.991875) rotate(-45, 0, 0)"><rect height="15.5" width="48.09375" y="13.5" x="-14.046875" class="commit-label-bkg"></rect><text class="commit-label" y="25" x="-12.046875">0-5a82f77</text></g><g transform="translate(-28.0496875, 24.986562499999998) rotate(-45, 50, 0)"><rect height="15.5" width="48.078125" y="13.5" x="35.9609375" class="commit-label-bkg"></rect><text class="commit-label" y="25" x="37.9609375">1-961f760</text></g><g transform="translate(-27.916093749999998, 24.86703125) rotate(-45, 100, 90)"><rect height="15.5" width="47.7265625" y="103.5" x="86.13671875" class="commit-label-bkg"></rect><text class="commit-label" y="115" x="88.13671875">2-bebbff1</text></g><g transform="translate(-28.658281249999998, 25.53109375) rotate(-45, 150, 90)"><rect height="15.5" width="49.6796875" y="103.5" x="135.16015625" class="commit-label-bkg"></rect><text class="commit-label" y="115" x="137.16015625">3-ba0ca55</text></g><g transform="translate(-28.6434375, 25.517812499999998) rotate(-45, 200, 90)"><rect height="15.5" width="49.640625" y="103.5" x="185.1796875" class="commit-label-bkg"></rect><text class="commit-label" y="115" x="187.1796875">4-1a31550</text></g><g transform="translate(-27.60771484375, 24.59111328125) rotate(-45, 300, 180)"><rect height="15.5" width="46.9150390625" y="193.5" x="286.54248046875" class="commit-label-bkg"></rect><text class="commit-label" y="205" x="288.54248046875">6-d5a82ff</text></g><g transform="translate(-28.020000000000003, 24.96) rotate(-45, 350, 180)"><rect height="15.5" width="48" y="193.5" x="336" class="commit-label-bkg"></rect><text class="commit-label" y="205" x="338">7-1f90ce0</text></g><g transform="translate(-27.49267578125, 24.48818359375) rotate(-45, 400, 270)"><rect height="15.5" width="46.6123046875" y="283.5" x="386.69384765625" class="commit-label-bkg"></rect><text class="commit-label" y="295" x="388.69384765625">8-68cfb9f</text></g><g transform="translate(-31.0421875, 27.6640625) rotate(-45, 500, 360)"><rect height="15.5" width="55.953125" y="373.5" x="482.0234375" class="commit-label-bkg"></rect><text class="commit-label" y="385" x="484.0234375">10-ddee07a</text></g></g></svg>